<svg width="30" height="30" viewBox="0 0 30 30" fill="none" xmlns="http://www.w3.org/2000/svg">
<path d="M16.1751 15L23.0835 8.09166C23.22 7.93225 23.2913 7.72718 23.2832 7.51745C23.2751 7.30772 23.1882 7.10877 23.0398 6.96036C22.8914 6.81195 22.6924 6.725 22.4827 6.7169C22.273 6.7088 22.0679 6.78014 21.9085 6.91666L15.0001 13.825L8.09181 6.90833C7.93489 6.75141 7.72206 6.66325 7.50014 6.66325C7.27822 6.66325 7.06539 6.75141 6.90847 6.90833C6.75155 7.06525 6.6634 7.27808 6.6634 7.5C6.6634 7.72192 6.75155 7.93474 6.90847 8.09166L13.8251 15L6.90847 21.9083C6.82124 21.983 6.75039 22.075 6.70037 22.1784C6.65035 22.2817 6.62224 22.3944 6.61781 22.5091C6.61338 22.6239 6.63271 22.7383 6.67461 22.8453C6.7165 22.9522 6.78005 23.0493 6.86127 23.1305C6.94248 23.2118 7.0396 23.2753 7.14654 23.3172C7.25348 23.3591 7.36792 23.3784 7.48268 23.374C7.59745 23.3696 7.71006 23.3415 7.81345 23.2914C7.91684 23.2414 8.00877 23.1706 8.08347 23.0833L15.0001 16.175L21.9085 23.0833C22.0679 23.2199 22.273 23.2912 22.4827 23.2831C22.6924 23.275 22.8914 23.188 23.0398 23.0396C23.1882 22.8912 23.2751 22.6923 23.2832 22.4825C23.2913 22.2728 23.22 22.0678 23.0835 21.9083L16.1751 15Z" fill="black"/>
</svg>
