<svg width="164" height="164" viewBox="0 0 164 164" fill="none" xmlns="http://www.w3.org/2000/svg">
<path d="M151.017 146.917L16.4007 11.6167L7.51733 20.5001L28.0173 41.0001C19.134 51.9334 13.6673 66.2834 13.6673 82.0001C13.6673 89.5167 19.8173 95.6667 27.334 95.6667H82.684L89.5173 102.5H61.5007L52.6173 133.25V136.667C52.6173 144.183 58.7673 150.333 66.284 150.333H98.4007C105.917 150.333 112.067 144.183 112.067 136.667L111.384 133.25L107.967 120.95L142.817 155.8L151.017 146.917ZM47.834 82.0001C40.3173 82.0001 34.1673 75.8501 34.1673 68.3334C34.1673 62.8667 37.584 57.4001 43.0507 55.3501L60.8173 73.1167C58.7673 78.5834 53.3007 82.0001 47.834 82.0001ZM68.334 41.0001C68.334 33.4834 74.484 27.3334 82.0007 27.3334C89.5173 27.3334 95.6673 33.4834 95.6673 41.0001C95.6673 48.5167 89.5173 54.6667 82.0007 54.6667C78.584 54.6667 75.8507 53.3001 73.1173 51.2501L117.534 95.6667H136.667C144.184 95.6667 150.334 89.5167 150.334 82.0001C150.334 44.4167 119.584 13.6667 82.0007 13.6667C69.0173 13.6667 56.7173 17.7667 45.784 23.9167L71.0673 49.2001C69.7007 47.1501 68.334 44.4167 68.334 41.0001ZM116.167 54.6667C123.684 54.6667 129.834 60.8167 129.834 68.3334C129.834 75.8501 123.684 82.0001 116.167 82.0001C108.651 82.0001 102.501 75.8501 102.501 68.3334C102.501 60.8167 108.651 54.6667 116.167 54.6667Z" fill="white"/>
</svg>
