<svg width="195" height="195" viewBox="0 0 195 195" fill="none" xmlns="http://www.w3.org/2000/svg">
<path d="M64.5938 24.375L53.0563 42.1688L64.5938 60.125H64.5125L48.3438 85.3125L34.2875 78L45.825 60.0438L34.2875 42.1688L50.5375 16.9812L64.5938 24.375ZM113.344 23.4813L101.806 41.4375L113.344 59.3125L113.262 59.3937L97.0938 84.5L83.0375 77.1875L94.575 59.3125L83.0375 41.4375L99.2875 16.25L113.344 23.4813ZM162.5 23.4813L150.8 41.4375L162.5 59.3125V59.3937L146.25 84.5L132.031 77.1875L143.569 59.3125L132.031 41.4375L148.281 16.25L162.5 23.4813ZM16.25 178.75V113.75C16.25 109.44 17.962 105.307 21.0095 102.26C24.057 99.2121 28.1902 97.5 32.5 97.5H162.5C166.81 97.5 170.943 99.2121 173.99 102.26C177.038 105.307 178.75 109.44 178.75 113.75V178.75H162.5V162.5H32.5V178.75H16.25ZM48.75 113.75C46.5951 113.75 44.5285 114.606 43.0048 116.13C41.481 117.653 40.625 119.72 40.625 121.875V138.125C40.625 140.28 41.481 142.347 43.0048 143.87C44.5285 145.394 46.5951 146.25 48.75 146.25C50.9049 146.25 52.9715 145.394 54.4952 143.87C56.019 142.347 56.875 140.28 56.875 138.125V121.875C56.875 119.72 56.019 117.653 54.4952 116.13C52.9715 114.606 50.9049 113.75 48.75 113.75ZM81.25 113.75C79.0951 113.75 77.0285 114.606 75.5048 116.13C73.981 117.653 73.125 119.72 73.125 121.875V138.125C73.125 140.28 73.981 142.347 75.5048 143.87C77.0285 145.394 79.0951 146.25 81.25 146.25C83.4049 146.25 85.4715 145.394 86.9952 143.87C88.519 142.347 89.375 140.28 89.375 138.125V121.875C89.375 119.72 88.519 117.653 86.9952 116.13C85.4715 114.606 83.4049 113.75 81.25 113.75ZM113.75 113.75C111.595 113.75 109.528 114.606 108.005 116.13C106.481 117.653 105.625 119.72 105.625 121.875V138.125C105.625 140.28 106.481 142.347 108.005 143.87C109.528 145.394 111.595 146.25 113.75 146.25C115.905 146.25 117.972 145.394 119.495 143.87C121.019 142.347 121.875 140.28 121.875 138.125V121.875C121.875 119.72 121.019 117.653 119.495 116.13C117.972 114.606 115.905 113.75 113.75 113.75ZM146.25 113.75C144.095 113.75 142.028 114.606 140.505 116.13C138.981 117.653 138.125 119.72 138.125 121.875V138.125C138.125 140.28 138.981 142.347 140.505 143.87C142.028 145.394 144.095 146.25 146.25 146.25C148.405 146.25 150.472 145.394 151.995 143.87C153.519 142.347 154.375 140.28 154.375 138.125V121.875C154.375 119.72 153.519 117.653 151.995 116.13C150.472 114.606 148.405 113.75 146.25 113.75Z" fill="#F57170"/>
</svg>
